<svg xmlns="http://www.w3.org/2000/svg" xmlns:xlink="http://www.w3.org/1999/xlink" width="30" height="30" viewBox="0 0 30 30"><defs><clipPath id="b"><rect width="30" height="30"/></clipPath></defs><g id="a" clip-path="url(#b)"><g transform="translate(6 6)"><path d="M629.771-361.791c2.4,0,2.688.009,3.637.053a4.987,4.987,0,0,1,1.672.31,2.981,2.981,0,0,1,1.708,1.708,4.98,4.98,0,0,1,.31,1.671c.043.949.052,1.233.052,3.636s-.009,2.687-.052,3.636a4.979,4.979,0,0,1-.31,1.671,2.981,2.981,0,0,1-1.708,1.708,4.986,4.986,0,0,1-1.672.31c-.949.043-1.234.052-3.637.052s-2.688-.009-3.637-.052a4.983,4.983,0,0,1-1.671-.31,2.98,2.98,0,0,1-1.708-1.708,4.979,4.979,0,0,1-.31-1.671c-.044-.949-.053-1.233-.053-3.636s.009-2.687.053-3.636a4.98,4.98,0,0,1,.31-1.671,2.98,2.98,0,0,1,1.708-1.708,4.984,4.984,0,0,1,1.671-.31c.949-.044,1.234-.053,3.637-.053m0-1.621c-2.445,0-2.751.01-3.711.054a6.605,6.605,0,0,0-2.185.418,4.6,4.6,0,0,0-2.632,2.631,6.6,6.6,0,0,0-.418,2.184c-.044.96-.054,1.266-.054,3.71s.01,2.75.054,3.71a6.6,6.6,0,0,0,.418,2.184,4.6,4.6,0,0,0,2.632,2.631,6.6,6.6,0,0,0,2.185.418c.96.044,1.266.054,3.711.054s2.751-.01,3.71-.054a6.6,6.6,0,0,0,2.185-.418,4.6,4.6,0,0,0,2.632-2.631,6.6,6.6,0,0,0,.418-2.184c.044-.96.054-1.266.054-3.71s-.01-2.75-.054-3.71a6.6,6.6,0,0,0-.418-2.184,4.6,4.6,0,0,0-2.632-2.631,6.607,6.607,0,0,0-2.185-.418C632.522-363.4,632.215-363.412,629.771-363.412Z" transform="translate(-620.771 363.412)" fill="#76787F"/><path d="M636.394-352.41a4.747,4.747,0,0,0-4.621,4.863,4.747,4.747,0,0,0,4.621,4.863,4.747,4.747,0,0,0,4.622-4.863,4.747,4.747,0,0,0-4.622-4.863Zm0,8.02a3.081,3.081,0,0,1-3-3.157,3.081,3.081,0,0,1,3-3.157,3.081,3.081,0,0,1,3,3.157h0A3.081,3.081,0,0,1,636.394-344.39Z" transform="translate(-627.385 357.017)" fill="#76787F"/><ellipse cx="1.08" cy="1.137" rx="1.08" ry="1.137" transform="translate(13.072 3.278)" fill="#76787F"/></g></g></svg>