<svg xmlns="http://www.w3.org/2000/svg" xmlns:xlink="http://www.w3.org/1999/xlink" width="30" height="30" viewBox="0 0 30 30"><defs><clipPath id="b"><rect width="30" height="30"/></clipPath></defs><g id="a" clip-path="url(#b)"><path d="M829.629-372.5H815.245A1.245,1.245,0,0,0,814-371.255h0v14.383a1.245,1.245,0,0,0,1.244,1.246h14.385a1.246,1.246,0,0,0,1.246-1.246h0v-14.383a1.246,1.246,0,0,0-1.246-1.246Zm-10.6,14.376h-2.536v-8.059h2.537Zm-1.269-9.175a1.457,1.457,0,0,1-1.451-1.463,1.457,1.457,0,0,1,1.462-1.451,1.457,1.457,0,0,1,1.451,1.457,1.437,1.437,0,0,1-1.416,1.457Zm10.621,9.181h-2.537v-4.4c0-1.3-.552-1.7-1.264-1.7a1.542,1.542,0,0,0-1.491,1.731v4.369h-2.537v-8.058h2.44v1.116h.032a2.769,2.769,0,0,1,2.411-1.342c1.416,0,2.945.839,2.945,3.3Z" transform="translate(-807 379.5)" fill="#76787F"/></g></svg>