<svg xmlns="http://www.w3.org/2000/svg" xmlns:xlink="http://www.w3.org/1999/xlink" width="30" height="30" viewBox="0 0 30 30"><defs><clipPath id="b"><rect width="30" height="30"/></clipPath></defs><g id="a" clip-path="url(#b)"><path d="M20.726,9.965a4,4,0,0,1-.346-.2,4.835,4.835,0,0,1-.89-.756,4.2,4.2,0,0,1-1-2.068h0a2.594,2.594,0,0,1-.04-.737H15.429V17.887c0,.157,0,.312-.006.466,0,.019,0,.036,0,.057a.118.118,0,0,1,0,.026v.007a2.567,2.567,0,0,1-1.291,2.036,2.516,2.516,0,0,1-1.251.33,2.566,2.566,0,1,1,.785-5.008l0-3.077A5.613,5.613,0,0,0,9.339,13.99a5.914,5.914,0,0,0-1.294,1.6,5.537,5.537,0,0,0-.667,2.539A6,6,0,0,0,7.7,20.13v.007a5.95,5.95,0,0,0,.821,1.5,6.163,6.163,0,0,0,1.309,1.235v-.008l.007.008a5.657,5.657,0,0,0,3.085.929,5.465,5.465,0,0,0,2.29-.507,5.738,5.738,0,0,0,1.859-1.4,5.819,5.819,0,0,0,1.014-1.684,6.316,6.316,0,0,0,.364-1.925v-6.2c.037.022.525.345.525.345a6.985,6.985,0,0,0,1.8.744,10.38,10.38,0,0,0,1.849.253v-3A3.916,3.916,0,0,1,20.726,9.965Z" transform="translate(-0.374 -0.202)" fill="#76787F"/></g></svg>