<svg xmlns="http://www.w3.org/2000/svg" xmlns:xlink="http://www.w3.org/1999/xlink" width="30" height="30" viewBox="0 0 30 30"><defs><clipPath id="b"><rect width="30" height="30"/></clipPath></defs><g id="a" clip-path="url(#b)"><path d="M552.422-346.214A10.7,10.7,0,0,0,563.2-356.987q0-.246-.011-.49a7.714,7.714,0,0,0,1.889-1.96,7.558,7.558,0,0,1-2.175.6,3.8,3.8,0,0,0,1.665-2.094,7.592,7.592,0,0,1-2.4.919,3.792,3.792,0,0,0-5.359-.168,3.79,3.79,0,0,0-1.1,3.621,10.754,10.754,0,0,1-7.807-3.956,3.788,3.788,0,0,0,1.174,5.055,3.759,3.759,0,0,1-1.714-.472v.048a3.788,3.788,0,0,0,3.039,3.712,3.781,3.781,0,0,1-1.71.065,3.792,3.792,0,0,0,3.538,2.63,7.6,7.6,0,0,1-4.7,1.621,7.663,7.663,0,0,1-.9-.052,10.727,10.727,0,0,0,5.806,1.7" transform="translate(-540.619 368.713)" fill="#76787F"/></g></svg>