<svg xmlns="http://www.w3.org/2000/svg" xmlns:xlink="http://www.w3.org/1999/xlink" width="30" height="30" viewBox="0 0 30 30"><defs><clipPath id="b"><rect width="30" height="30"/></clipPath></defs><g id="a" clip-path="url(#b)"><path d="M702.526-363.936a2.348,2.348,0,0,0-1.658-1.657,56.115,56.115,0,0,0-7.326-.391,56.111,56.111,0,0,0-7.326.391,2.348,2.348,0,0,0-1.658,1.657,24.423,24.423,0,0,0-.391,4.512,24.421,24.421,0,0,0,.391,4.512,2.348,2.348,0,0,0,1.658,1.657,56.124,56.124,0,0,0,7.326.391,56.128,56.128,0,0,0,7.326-.391,2.348,2.348,0,0,0,1.658-1.657,24.423,24.423,0,0,0,.391-4.512A24.378,24.378,0,0,0,702.526-363.936Zm-10.859,7.324v-5.624l4.871,2.812Z" transform="translate(-678.167 373.984)" fill="#76787F"/></g></svg>