<?xml version="1.0" encoding="UTF-8"?>
<svg width="673.222" height="596.718" 
viewBox="0 0 673.222 596.718" 
preserveAspectRatio="xMinYMin"
xmlns:xlink="http://www.w3.org/1999/xlink"
xmlns="http://www.w3.org/2000/svg">
<!-- Generated by PQINA - https://pqina.nl/ -->
<title></title>
<g transform="rotate(NaN 336.611 298.359) translate(336.611 298.359) scale(NaN) translate(-336.611 -298.359) translate(0 0)">
<g transform="scale(1 1) translate(0 0)">
<svg id="icon-logo" xmlns="http://www.w3.org/2000/svg" width="673.222" height="596.718" viewBox="0 0 673.222 596.718" style="overflow: visible;">
  <g id="Group_2463" data-name="Group 2463">
    <g id="Group_2462" data-name="Group 2462">
      <path id="logo" d="M243.344,80.883c-23.941,34.618-55.3,60.985-92.4,80.661-43.766,23.208-89,26.68-135.266,26.216-26.031-.262-48.91,17.079-54.348,44.882-.6,3.061-5.253,8.021-5.253,8.021l190.813.151a175.972,175.972,0,0,1-.007-22.8c14.584-8.1,30.407-16.386,45.768-25.539a281.89,281.89,0,0,0,95.978-93.907c3.495-5.586,14.181-29.4,14.181-29.4s96.669.264,136.609.248C463.968,69.408,496,53,495.991,21.978l-218.615.083C265.585,42.67,255.911,62.716,243.344,80.883Zm338.741-436.45Q380.633-243.984,179.563-132.617c21.94,34.251,31.958,69.187,22.714,109.05-10.2,43.984-35.128,78.2-74.439,102.743C98.809,97.3,65.253,108.084,48.431,108.091s-53.457.285-71.221.028c-3.576-.053-6.878,0-6.878,0s10.8-40.673,51.727-40.689c13.45,0,49.272-.239,62.74-.023,19.693.313,56.126-27.747,56.119-49.663-19.619.009-58.87.023-58.87.023s28.018-67.842-5.642-129.532L378.949-279.147c32.1-17.692,40.5-35.256,37.621-76.756C281.361-281,148.108-207.173,12.528-132.058,55.752-83.343,45.7-24.448,37.849,17.788c-2.6.028-5.195-.037-7.794,0C-11.533,18.4-44.934,38.6-69.116,73.3c-17.355,24.9-19.86,79.323-19.86,79.323s74.692-.03,133.119-.051,131.456-34.356,175.063-96.8c19.159-27.436,28.057-53.531,31.935-83.254,24.036-13.306,63.844-35.42,71.882-39.8,33.071-18,65.815-36.257,98.7-54.64,23.8-13.3,30.318-16.785,54.127-29.966,19.468-10.779,45.881-55.621,37.412-76.476-70.37,38.971-188.149,104.173-264.439,146.4a148.565,148.565,0,0,0-2.711-19.257,46.325,46.325,0,0,0-3.759-11.609s32.519-17.986,43.653-24.085c19.153-10.493,32.647-18.327,51.771-28.66,22.4-12.107,44.462-24.723,66.791-36.979q38.705-21.24,77.285-42.706c22.385-12.453,44.534-24.8,67.227-37.3C573.048-295.76,590.545-327.85,582.085-355.567ZM291.24,152.53h10.677s79.808.125,119.734-.063c34.439-.162,64.765-16.3,65.655-47.906l-163.266.063C312.587,136.225,291.24,152.53,291.24,152.53Z" transform="translate(88.976 355.903)" fill-rule="evenodd"></path>
    </g>
  </g>
</svg>
</g>
</g>
</svg>