<?xml version="1.0" encoding="UTF-8"?>
<svg width="200" height="55.00000000000001" 
viewBox="0 0 200 55.00000000000001" 
preserveAspectRatio="xMinYMin"
xmlns:xlink="http://www.w3.org/1999/xlink"
xmlns="http://www.w3.org/2000/svg">
<!-- Generated by PQINA - https://pqina.nl/ -->
<title></title>
<g transform="rotate(NaN 100 27.500000000000004) translate(100 27.500000000000004) scale(NaN) translate(-100 -27.500000000000004) translate(0 3.552713678800501e-15)">
<g transform="scale(1 1) translate(0 0)">
<svg xmlns="http://www.w3.org/2000/svg" xmlns:xlink="http://www.w3.org/1999/xlink" width="200" height="55" viewBox="0 0 200 55" style="overflow: visible;"><defs><clipPath id="b"><rect width="200" height="55"></rect></clipPath></defs><g id="a" clip-path="url(#b)"><g transform="translate(-38 -127)"><g transform="translate(38 127)"><path d="M-57.483-326.585a23.319,23.319,0,0,1-8.431,7.36c-3.993,2.117-8.12,2.434-12.342,2.392a4.941,4.941,0,0,0-4.959,4.1,2.281,2.281,0,0,1-.479.732l17.41.014a16.054,16.054,0,0,1,0-2.081c1.331-.74,2.774-1.5,4.176-2.33a25.721,25.721,0,0,0,8.757-8.568c.319-.51,1.294-2.682,1.294-2.682s8.82.024,12.465.023c2.24,0,5.163-1.5,5.162-4.329l-19.947.008C-55.454-330.072-56.337-328.243-57.483-326.585Zm30.908-39.823L-63.3-346.066c2,3.125,2.916,6.313,2.072,9.95a14.593,14.593,0,0,1-6.792,9.375,16.724,16.724,0,0,1-7.245,2.638c-1.535,0-4.878.026-6.5,0-.326,0-.628,0-.628,0s.986-3.711,4.72-3.713c1.227,0,4.5-.022,5.725,0,1.8.029,5.121-2.531,5.12-4.531l-5.371,0s2.556-6.19-.515-11.819l27.6-15.273c2.928-1.614,3.7-3.217,3.433-7l-36.866,20.424c3.944,4.445,3.027,9.819,2.31,13.672-.237,0-.474,0-.711,0a10.925,10.925,0,0,0-9.048,5.065c-1.584,2.272-1.812,7.238-1.812,7.238l12.146,0c5.331,0,11.994-3.134,15.973-8.832a16.274,16.274,0,0,0,2.914-7.6c2.193-1.214,5.825-3.232,6.559-3.631,3.017-1.642,6.005-3.308,9.006-4.986,2.171-1.214,2.767-1.531,4.939-2.734,1.776-.983,4.186-5.075,3.414-6.978-6.421,3.556-17.167,9.505-24.128,13.358a13.553,13.553,0,0,0-.247-1.757,4.23,4.23,0,0,0-.343-1.059s2.967-1.641,3.983-2.2c1.748-.957,2.979-1.672,4.724-2.615,2.044-1.1,4.057-2.256,6.094-3.374q3.531-1.938,7.052-3.9c2.042-1.136,4.063-2.263,6.134-3.4C-27.4-360.952-25.8-363.879-26.576-366.408Zm-26.537,46.36h.974s7.282.011,10.925-.006c3.143-.015,5.909-1.488,5.991-4.371l-14.9.006A10.251,10.251,0,0,1-53.113-320.048Z" transform="translate(87.805 366.439)" fill="#fff" fill-rule="evenodd"></path></g><g transform="translate(102.345 161.647)"><path d="M825.368-249.1l1.645,1.893-8.728,9.941h5.219l1.71-2.165H834.4l.18,2.165h4.879L837.992-249.1C838.008-249.142,825.368-249.1,825.368-249.1Zm2.321,6.8,2.766-3.524h3.463l.306,3.524Z" transform="translate(-703.802 249.143)" fill="#fff"></path><path d="M363.194-246.013l.893-2.923H345.543l1.8,2.025-2.929,9.808h16.334l.855-2.8c-2.233,0-10.323.013-11.841,0l.493-1.64h11.574l.887-2.905-11.759-.04.524-1.525Z" transform="translate(-314.614 248.982)" fill="#fff"></path><path d="M529.631-248.936H511.252l1.8,2.025-2.929,9.808h4.907l2.626-8.819H525.5c1.9,0,.574,2.918-.548,2.918h-7.076l4.568,5.9h5.6l-2.531-3.158h1.3C531.526-240.26,532.682-248.936,529.631-248.936Z" transform="translate(-451.172 248.982)" fill="#fff"></path><path d="M710.442-248.936l-4.114,4.577h-1.81l-2.943-4.577h-5.7L701-240.978h2.025l-3.446,3.875h6.007l11.062-11.833Z" transform="translate(-605.488 248.982)" fill="#fff"></path><path d="M191.235-249.33c-2.189,0-16.195,0-17.258,0l1.758,1.94-1.615,5.516-1.312,4.421h14.906C193.16-237.453,194.8-249.33,191.235-249.33Zm-5.663,8.644h-7.4l1.636-5.41h7.051C189.046-246.1,187.127-240.686,185.572-240.686Z" transform="translate(-172.807 249.33)" fill="#fff"></path></g></g></g></svg>
</g>
</g>
</svg>